<svg width="18" height="31" viewBox="0 0 18 31" fill="none" xmlns="http://www.w3.org/2000/svg">
<g clip-path="url(#clip0)">
<path fill-rule="evenodd" clip-rule="evenodd" d="M8.5 21V29C8.5 30.1046 7.6046 31 6.5 31C5.3954 31 4.5 30.1046 4.5 29V21H8.5Z" fill="#212121"/>
<path d="M13 4C13 6.20914 11.2091 8 9 8C6.7909 8 5 6.20914 5 4C5 1.79086 6.7909 0 9 0C11.2091 0 13 1.79086 13 4Z" fill="#212121"/>
<path fill-rule="evenodd" clip-rule="evenodd" d="M13.5 21V29C13.5 30.1046 12.6046 31 11.5 31C10.3954 31 9.5 30.1046 9.5 29V21H13.5Z" fill="#212121"/>
<path d="M4.5 13H13.5V21H4.5V13Z" fill="#212121"/>
<path d="M0 13H3.5V19.25C3.5 20.2165 2.7165 21 1.75 21C0.7835 21 0 20.2165 0 19.25V13Z" fill="#212121"/>
<path d="M14.5 13H18V19.25C18 20.2165 17.2165 21 16.25 21C15.2835 21 14.5 20.2165 14.5 19.25V13Z" fill="#212121"/>
<path d="M0 11.5C0 9.8431 1.34315 8.5 3 8.5H15.0023C16.6591 8.5 18.0023 9.8431 18.0023 11.5V13H0V11.5Z" fill="#212121"/>
</g>
<defs>
<clipPath id="clip0">
<rect width="18" height="31" fill="white"/>
</clipPath>
</defs>
</svg>
