<?xml version="1.0" encoding="iso-8859-1"?>
<!-- Generator: Adobe Illustrator 24.0.0, SVG Export Plug-In . SVG Version: 6.00 Build 0)  -->
<svg version="1.1" id="Capa_1" xmlns="http://www.w3.org/2000/svg" xmlns:xlink="http://www.w3.org/1999/xlink" x="0px" y="0px"
	 viewBox="0 0 1920 620" style="enable-background:new 0 0 1920 620;" xml:space="preserve">
<rect x="1898" y="31.5" style="display:none;fill:#5D5D5D;" width="377" height="232"/>
<ellipse style="display:none;fill:none;stroke:#000000;stroke-width:0.4933;stroke-miterlimit:10;" cx="2067.146" cy="163.5" rx="69.521" ry="60.667"/>
<ellipse style="display:none;fill:none;stroke:#000000;stroke-width:0.6891;stroke-miterlimit:10;" cx="2029.432" cy="146.5" rx="110.068" ry="74.774"/>
<ellipse transform="matrix(0.9142 -0.4053 0.4053 0.9142 104.1366 844.5735)" style="display:none;fill:none;stroke:#000000;stroke-width:0.6965;stroke-miterlimit:10;" cx="2046.58" cy="176.362" rx="74.047" ry="113.569"/>
<g>
	<g>
		<path d="M1178.113,368.073c-2.552-22.636,1.277-38.346,10.05-48.481c13.399-15.709,38.442-18.92,65.878-18.92l-23.607,126.861
			c17.227,1.858,51.682,14.02,70.981,27.533l-29.349,14.866c-14.676-17.907-45.62-36.318-65.56-36.488l22.174-117.569
			c-11.327,1.183-22.81,2.872-29.669,9.122c-5.744,5.743-5.265,19.088,1.595,31.757L1178.113,368.073z"/>
		<path d="M1307.948,397.803c-12.601,36.488-60.775,46.284-51.841-1.013l10.527-53.548h22.012
			c-5.103,28.548-8.773,45.946-12.442,65.879c-3.667,20.27,20.099,5.237,25.523-11.318H1307.948z M1271.739,330.066
			c-2.234-2.535-3.352-5.575-3.352-9.46c0.161-3.715,1.277-6.756,3.67-9.459c2.552-2.533,5.424-3.885,9.093-3.885
			c3.667,0,6.38,1.352,8.773,3.885c2.552,2.703,3.828,5.744,3.828,9.459c0,3.885-1.436,6.926-3.988,9.46
			c-2.554,2.533-5.585,3.715-9.093,3.715C1277.163,333.782,1274.132,332.6,1271.739,330.066z"/>
		<path d="M1427.095,398.986c-12.76,36.318-56.946,41.385-50.245,3.716c2.234-13.007,4.785-26.521,7.337-41.218
			c3.828-19.257-13.399-4.898-19.14,10.642c-0.159,0.337-0.32,0.676-0.479,1.352c-0.957,5.237-8.293,49.831-9.091,54.223h-21.056
			c4.465-26.352,7.816-47.298,11.006-65.71c3.031-17.905-13.081-7.264-19.62,6.926c-0.159,0.169-0.159,0.337-0.32,0.676
			l-11.006,58.109h-22.012l15.953-84.46h22.012l-2.075,11.486c12.76-16.215,35.731-18.243,37.165,4.9
			c16.75-24.155,45.461-25.846,37.806,13.852l-2.554,15.033c-1.275,7.264-1.436,7.77-3.829,21.453
			c-2.711,13.344,18.663,5.068,23.928-10.98H1427.095z"/>
		<path d="M1503.333,367.229c-6.38,6.081-12.76,10.811-18.981,13.852c-4.626,38.513-34.295,53.379-53.117,45.777
			c-14.835-5.744-20.258-20.27-18.663-35.811c1.756-16.386,11.006-33.447,25.841-42.399c14.835-9.122,37.006-9.966,44.663,9.628
			c1.277,3.209,2.075,7.263,2.075,11.824c6.38-1.689,12.601-4.898,17.704-8.615L1503.333,367.229z M1465.209,384.29
			c-5.103-1.014-9.888-3.379-15.312-7.77l8.296-11.994c2.072,2.027,4.465,3.548,6.857,4.561
			c-2.552-12.5-12.601-23.649-21.692-10.304c-7.978,12.163-15.155,49.155-0.959,57.601c7.657,4.73,18.663-3.547,22.81-31.419
			C1465.209,384.796,1465.209,384.459,1465.209,384.29z"/>
	</g>
	<g>
		<path d="M563.977,216.389c-4.666-45.759,24.885-46.909,51.207-41.275c15.673,3.335,30.15,6.439,37.807-2.644h6.461
			c-14.477,17.591-25.603,16.901-41.037,13.452l-15.794,73.008h-16.51l16.631-75.537c-10.888-1.15-18.664-1.035-23.451,3.563
			c-4.067,3.565-2.99,12.993,0.958,22.191L563.977,216.389z"/>
		<path d="M682.06,205.237l-11.127,8.852c-9.691-6.782-18.544,2.07-24.646,11.613l-6.701,33.227h-16.869l12.084-57.487h16.391
			l-2.513,12.532C656.218,201.902,666.387,196.269,682.06,205.237z"/>
		<path d="M751.687,239.268c-8.255,21.156-36.969,28.628-38.524,8.853c-12.682,18.166-39.961,14.831-37.807-8.968
			c1.674-18.511,11.127-37.022,32.542-37.712h30.269l-0.958,4.369c-3.708,17.591-6.221,27.824-8.973,41.045
			c-2.632,13.107,14.836,3.219,18.784-7.588H751.687z M719.265,212.019c-7.298-12.761-21.416-0.345-25.603,18.281
			c-4.547,20.81,3.349,31.617,19.861,10.233L719.265,212.019z"/>
		<path d="M817.845,238.808c-10.528,26.444-42.951,29.319-37.687-0.689c1.674-8.049,3.23-16.096,4.785-24.145
			c2.632-13.222-13.519-3.794-17.946,6.784l-7.537,38.171h-16.99l12.084-57.487h16.391l-1.795,8.623
			c12.922-14.026,35.653-13.567,30.628,12.302c-2.871,14.256-2.154,10.117-4.785,24.145c-2.632,14.142,14.356,3.449,18.185-7.704
			H817.845z"/>
		<path d="M848.23,216.274c1.794-3.449,3.829-9.773-3.35-10.348c-2.632-0.459-6.221,0.346-8.375,1.955
			c-3.709,1.494-5.743,4.828-5.265,7.128c0.359,2.53,0.718,2.874,2.273,4.484c2.034,1.725,5.025,3.679,8.615,5.519
			c3.111,1.495,6.699,3.565,9.691,5.519c2.632,2.07,4.547,4.254,5.624,7.128c6.221,23.914-46.78,29.778-50.37,11.037
			c-0.957-5.519,2.632-11.842,9.811-14.831l8.853,7.243c-7.417,2.185-10.768,5.979-9.212,9.083
			c1.555,3.794,9.571,4.944,16.271,2.529c3.828-1.609,6.939-3.909,8.495-7.358c1.794-3.909-2.513-7.243-5.863-9.657
			c-4.188-2.3-6.58-3.22-9.571-5.404c-3.111-1.724-6.699-4.828-8.375-7.588c-5.025-6.554-3.111-15.061,7.298-19.085
			c5.624-2.415,11.845-3.105,18.067-2.53c8.973,0.46,15.792,3.794,18.663,9.773c1.196,2.76,1.196,6.439,0.24,10.003L848.23,216.274z
			"/>
		<path d="M917.021,226.047c-0.119,7.358-1.914,15.061-5.624,21.385c-1.794,3.335-4.067,6.093-7.178,8.163
			c-3.231,2.53-7.419,4.025-12.084,4.025c-4.906,0-12.204-2.3-14.836-5.06l-6.699,33.112h-16.869l17.826-86.23h16.869l-0.718,3.449
			C906.372,192.819,917.14,210.181,917.021,226.047z M886.632,210.525l-7.897,37.481c5.265,6.784,11.605,4.255,15.554-1.034
			c2.393-3.22,4.426-8.279,5.503-13.797C901.946,222.138,902.663,200.177,886.632,210.525z"/>
		<path d="M984.734,217.768c-4.785,4.139-9.573,7.358-14.237,9.428c-3.469,26.214-25.723,36.331-39.841,31.158
			c-11.127-3.909-15.195-13.797-13.999-24.375c1.317-11.152,8.256-22.765,19.382-28.859c11.127-6.208,27.756-6.784,33.5,6.554
			c0.956,2.185,1.554,4.944,1.554,8.049c4.785-1.15,9.452-3.335,13.281-5.863L984.734,217.768z M956.14,229.381
			c-3.829-0.69-7.417-2.3-11.486-5.29l6.222-8.163c1.555,1.381,3.349,2.415,5.144,3.105c-1.914-8.508-9.452-16.096-16.272-7.014
			c-5.981,8.279-11.365,33.458-0.717,39.207c5.743,3.219,13.997-2.415,17.108-21.386C956.14,229.726,956.14,229.496,956.14,229.381z
			"/>
		<path d="M1032.946,205.237l-11.127,8.852c-9.691-6.782-18.545,2.07-24.646,11.613l-6.701,33.227h-16.868l12.083-57.487h16.391
			l-2.513,12.532C1007.103,201.902,1017.273,196.269,1032.946,205.237z"/>
		<path d="M1074.34,238.808c-9.573,24.605-44.865,31.158-38.165-0.459l6.339-29.893h-7.178l2.99-7.014h5.744l3.231-14.947
			l16.989-3.219l-3.708,18.166h9.691l-3.47,7.014h-7.539l-8.016,38.171c-2.751,13.452,14.237,3.449,18.307-7.818H1074.34z"/>
		<path d="M1117.408,239.154c-9.332,16.556-19.143,20.81-32.782,20.465c-22.612-0.69-22.971-28.169-11.845-45.185
			c9.093-13.567,24.646-16.442,31.467-10.923c6.101,4.714,6.221,13.452,2.631,20.235c-5.383,9.542-15.432,13.107-25.723,12.763
			c0.12,5.519,2.275,11.957,7.419,14.371c9.211,4.139,18.904-2.759,24.525-11.727H1117.408z M1081.515,231.105
			c18.904,0.575,21.058-21.27,18.066-23.57c-2.393-1.724-7.657,0.46-11.963,7.014c-2.513,3.679-4.667,8.853-5.983,15.291
			C1081.635,230.301,1081.515,230.761,1081.515,231.105z"/>
		<path d="M1151.142,216.274c1.795-3.449,3.829-9.773-3.349-10.348c-2.634-0.459-6.221,0.346-8.375,1.955
			c-3.708,1.494-5.742,4.828-5.265,7.128c0.359,2.53,0.718,2.874,2.275,4.484c2.033,1.725,5.024,3.679,8.614,5.519
			c3.111,1.495,6.701,3.565,9.691,5.519c2.631,2.07,4.547,4.254,5.624,7.128c6.221,23.914-46.781,29.778-50.368,11.037
			c-0.959-5.519,2.631-11.842,9.809-14.831l8.854,7.243c-7.418,2.185-10.768,5.979-9.214,9.083
			c1.557,3.794,9.573,4.944,16.273,2.529c3.828-1.609,6.939-3.909,8.493-7.358c1.795-3.909-2.513-7.243-5.862-9.657
			c-4.188-2.3-6.58-3.22-9.57-5.404c-3.11-1.724-6.701-4.828-8.375-7.588c-5.026-6.554-3.111-15.061,7.298-19.085
			c5.624-2.415,11.845-3.105,18.066-2.53c8.973,0.46,15.791,3.794,18.663,9.773c1.197,2.76,1.197,6.439,0.239,10.003
			L1151.142,216.274z"/>
	</g>
	<g>
		<g>
			<path d="M483.457,178.857c-74.633-72.06-210.947-55.002-210.947-55.002l4.009,17.271l-106.707-26.831
				c72.166-40.401,221.125-27.448,221.125-27.448c-51.195-57.98-163.762-41.943-222.359,0.308
				c-61.609,44.423-72.784,108.866-72.784,108.866l12.026,1.233c-9.252,13.448-16.656,44.609-16.656,44.609
				c-27.139-79.985,37.62-140.832,41.015-146.383c3.394-5.551,6.161-21.385,6.161-21.385
				c-21.07,11.514-101.515,63.419-97.17,159.059c4.356,95.892,107.491,132.705,107.491,132.705
				c68.328,28.569,166.992,21.652,166.992,21.652l-9.917-21.708l109.917,29.456c-179.981,63.3-281.232,5.151-281.232,5.151
				c61.006,113.161,149.061,170.423,149.061,170.423c25.935-13.981,59.925-48.322,79.904-70.727
				c51.032-57.23,66.571-88.263,71.276-102.563c45.743-59.523,48.159-126.622,48.159-126.622l-16.017-0.266
				c3.084-9.869-1.85-49.287-1.85-49.287c78.026,78.3-20.971,209.965-20.971,209.965
				C616.996,302.15,483.457,178.857,483.457,178.857z"/>
			<g>
				<path style="fill:#FFC600;" d="M378.016,77.035c0,0-34.566-30.663-97.535-26.551s-158.214,44.674-179.597,135.77
					c0,0,10.948-0.117,14.341,4.216c0,0-22.925,40.649-18.813,66.307c0,0-52.139-77.905,26.802-162.102l8.965-13.988
					c0,0-81.102,38.235-86.658,140.834c0,0-2.291,56.663,49.964,101.322c38.97,33.305,112.877,61.306,213.931,55.493
					c0,0-9.624-20.093-14.63-23.794l135.158,35.491c0,0,40.868-53.03,47.653-118.117h-16.247c0,0,2.986-53.824-9.35-74.795
					c0,0,96.222,53.935,13.57,203.613c0,0,76.484-63.326,60.447-149.61c0,0-30.84-145.018-247.813-125.897l14.953,20.903
					l-139.073-35.192C154.083,110.936,235.566,58.588,378.016,77.035z"/>
				<path style="fill:#FFC600;" d="M148.532,405.735c0,0,100.566,56.746,278.501-11.719c0,0-1.544,22.474-71.871,99.922
					c-18.408,20.272-35.886,38.859-69.284,65.998C285.878,559.936,204.743,508.124,148.532,405.735z"/>
			</g>
		</g>
		<g>
			<path d="M191.092,212.983c0,0,35.334-27.341,62.062-31.643c26.728-4.302,71.359-10.128,98.087-6.016
				c26.728,4.112,49.249,15.027,58.295,24.973c9.046,9.945,12.885,21.425,17.497,25.537c4.613,4.112,4.795,5.484,6.646,13.775
				c1.027,4.602,0.947,15.444,1.462,18.915c0.322,2.17,2.54,1.298,2.54,1.298l0.132,17.784l-2.262,1.478
				c0,0,2.262,22.036-6.99,28.322c-5.745,3.903-17.438,3.547-17.438,3.547s-11.122-0.001-13.178-7.402c0,0-3.72-6.579-2.281-15.626
				h-70.11c0,0-5.031,24.672-24.269,27.139c-19.237,2.467-20.497,0.411-20.497,0.411s-10.81,0.001-17.769-9.869
				c-6.959-9.869-6.643-12.471-6.643-12.471l-64.053,4.08c0,0-5.037,15.587-15.729,18.465c-10.691,2.878-19.83,3.077-29.504-0.074
				c-14.289-4.654-18.504-20.875-20.149-21.514c-1.645-0.64-3.701-8.693-3.701-11.954s0-6.55,0-6.55v-22.205
				c0,0-0.411-10.691,4.112-11.102c4.523-0.411,5.691-4.601,6.99-11.102C136.813,218.829,154.847,218.053,191.092,212.983z"/>
			<path style="fill:#FFC600;" d="M216.072,232.721c0,0,5.86-10.177,16.345-11.719c10.486-1.542,42.952-4.906,40.709,1.542
				c-3.29,9.458,2.056,8.327-14.598,11.103C241.875,236.422,209.904,241.665,216.072,232.721z"/>
			<path style="fill:#FFC600;" d="M287.313,244.132c0,0,7.977-4.162,16.037-1.028c7.402,2.878,13.364,8.841,17.065,17.887
				s-0.206-18.093-13.364-22.616C294.312,233.996,289.575,240.637,287.313,244.132z"/>
			<path style="fill:#FFC600;" d="M207.129,204.965c0,0,20.355-18.504,53.97-22.205c33.616-3.701,60.644-5.551,60.644-5.551
				s4.738,0.617,1.654,4.009c-3.084,3.392-17.887,23.13-24.364,23.747c-6.476,0.617-95.605,5.86-95.605,5.86
				S197.448,211.941,207.129,204.965z"/>
			<path style="fill:#FFC600;" d="M321.743,198.18c0,0,6.935-12.727,13.99-16.345c2.159-1.107,10.023-0.423,10.023-0.423
				s7.957-0.588,9.117,2.068c2.962,6.784,7.074,24.569,7.074,24.569c0.539,3.599,2.878,4.957-5.243,4.934
				c-8.949-0.025-26.523,0-26.523,0s-6.476-3.392,0.308-4.318c0,0,18.813,0.925,21.897-2.776c3.084-3.701-0.329-12.337-5.809-13.611
				c-5.782-1.345-11.271,1.116-15.588,3.892c-4.318,2.776-3.657,6.327-6.55,6.327S318.385,203.396,321.743,198.18z"/>
			<path style="fill:#FFC600;" d="M361.741,186.152l7.607,24.738c0,0,1.234,4.252,5.14,4.458c3.906,0.206,21.177,1.234,21.177,1.234
				s-1.439-7.607-4.112-13.364s-4.318-12.131-13.261-15.215C369.348,184.918,360.359,181.658,361.741,186.152z"/>
			<path style="fill:#FFC600;" d="M392.787,197.161c0,0,6.374,13.32,7.196,15.959c0.822,2.639,1.028,4.078,5.551,4.695
				c4.523,0.617,7.813,0.925,7.813,0.925s4.523,1.131,0-4.625c-4.523-5.757-10.28-13.962-14.598-16.953
				C394.432,194.171,391.101,193.604,392.787,197.161z"/>
			<path style="fill:#FFC600;" d="M417.151,253.075c0,0,8.162-2.93,14.032,8.173c4.772,9.026,1.234,2.467,1.234,2.467
				s0.308-8.635-5.397-14.187C424.69,247.262,416.842,247.216,417.151,253.075z"/>
			<path style="fill:#FFC600;" d="M199.727,280.324l29.972-0.117c0,0-0.366,2.843,1.793,4.385c2.159,1.542,5.86,5.402,0,5.402
				s-24.364,0-24.364,0S197.26,288.651,199.727,280.324z"/>
			<path style="fill:#FFC600;" d="M207.129,259.552l47.648-2.489c0,0,5.012-2.445-2.699-2.445c-7.71,0-42.783,1.163-42.783,1.163
				s-3.289,0.165-4.325,1.305C204.174,257.96,205.616,259.552,207.129,259.552z"/>
			<path style="fill:#FFC600;" d="M154.083,300.261c0,0,4.86,1.135,6.99,1.645c2.967,0.711,22.925-0.103,22.925-0.103
				s-5.549,9.097-13.467,9.149C161.742,311.01,157.579,307.406,154.083,300.261z"/>
			<ellipse style="fill:#FFC600;" cx="297.743" cy="276.488" rx="21.532" ry="30.917"/>
			<ellipse style="fill:#FFC600;" cx="422.885" cy="280.307" rx="9.995" ry="23.244"/>
			<path style="fill:#FFC600;" d="M143.906,289.994h37.934c0,0,4.626-5.044,4.626-5.969l-45.335,1.442
				C141.13,285.468,140.514,286.378,143.906,289.994z"/>
			<path d="M304.528,270.654c0,0-4.262,2.39-5.187-3.084c-1.163-6.879-0.287-14.576-0.287-14.576s2.137-5.778,7.072-1.461
				s8.944,10.486,6.476,12.645C310.135,266.337,304.528,270.654,304.528,270.654z"/>
			<path d="M308.079,274.766l-3.551,1.722c0,0-4.091,1.362,0,7.324c4.091,5.962,5.695,8.601,8.823,9.252
				c2.484,0.517,2.858-1.722,4.391-9.149c1.533-7.427,1.028-13.251-1.645-12.742S308.079,274.766,308.079,274.766z"/>
			<path d="M302.71,285.349c0,0,10.304,14.295,5.369,16.762s-13.981,3.906-14.803,1.439s2.878-14.187,2.878-14.187
				S297.811,282.436,302.71,285.349z"/>
			<path d="M421.468,271.174c0,0,1.416-8.399,0-8.349c-2.303,0.081-6.255,9.835-4.704,11.377
				C418.315,275.743,420.518,277.311,421.468,271.174z"/>
			<path d="M424.244,268.834v-7.432c0,0,3.547-0.64,5.397,4.615c1.85,5.254-0.54,7.873-2.699,8.877
				C424.784,275.897,424.244,268.834,424.244,268.834z"/>
			<path d="M418.847,280.307c0,0,3.547,2.221,2.621,8.698c-0.925,6.476-4.454,6.014-4.694,0.771
				C416.534,284.532,415.917,280.398,418.847,280.307z"/>
			<path d="M427.274,283.299c0,0,2.15,4.472,3.03,5.551c0.879,1.079,2.558-3.96,2.553-7.077s-0.363-5.567-2.791-3.254
				C427.636,280.832,426.5,281.734,427.274,283.299z"/>
			<path d="M424.244,287.925v12.336c0,0-0.115,2.522,3.03-1.079c3.145-3.602,3.283-4.008,2.671-5.396
				c-0.612-1.389-3.542-5.86-3.542-5.86S424.244,286.383,424.244,287.925z"/>
			<path d="M294.715,266.017l0.072-11.399c0,0,0-7.813-6.445-4.686c-3.057,1.483-5.962,6.947-6.785,9.62s-1.85,6.163,2.056,8.633
				c3.906,2.47,8.224,2.958,8.224,2.958S295.326,270.483,294.715,266.017z"/>
			<path d="M282.379,275.594c0,0,9.373-1.902,10.778,3.079c0.754,2.673,0.53,5.346-1.526,9.252
				c-2.056,3.906-4.318,11.925-7.402,8.43c-3.084-3.495-5.551-11.536-5.962-16.048C277.856,275.794,279.471,275.916,282.379,275.594
				z"/>
			<path style="fill:#FFC600;" d="M128.486,284.634c0,0,9.458-0.754,9.56,0.618c0.265,3.539,1.234,7.164-2.467,7.196
				s-6.271-0.103-6.271-0.103l-1.131-3.722c0,0-1.129-0.023-1.748-0.698c-0.423-0.462-0.411-2.244-0.411-2.576
				C126.019,284.532,126.664,284.94,128.486,284.634z"/>
			<ellipse style="fill:#FFC600;" cx="239.896" cy="283.684" rx="6.245" ry="4.241"/>
		</g>
	</g>
	<g>
		<path d="M1610.7,399.449c-15.707,35.754-70.844,41.281-94.733,16.754c-21.595-21.591-11.616-70.471,6.71-94.306
			c7.852-10.018,17.179-16.755,26.503-20.037c11.946-4.663,23.725-4.145,32.561,0.691c7.688,4.145,13.252,11.399,14.396,21.763
			c0.983,9.155-1.472,20.727-8.997,34.027l-13.254-22.454c2.455-4.145,5.727-8.291,5.563-13.3c-0.164-5.527-3.763-8.291-8.671-8.291
			c-5.4,0-11.943,3.282-18.979,9.673c-17.67,17.099-30.597,55.79-18.162,77.208c12.435,21.591,54.647,25.908,69.21-1.728H1610.7z"/>
		<path d="M1695.947,398.931c-11.29,31.781-50.556,43.008-52.684,13.3c-17.343,27.29-54.648,22.281-51.703-13.472
			c2.291-27.809,15.218-55.617,44.504-56.655h41.393l-1.308,6.564c-5.072,26.426-8.508,41.799-12.271,61.662
			c-3.6,19.69,20.287,4.836,25.687-11.4H1695.947z M1651.607,357.995c-9.98-19.173-29.286-0.518-35.013,27.464
			c-6.216,31.262,4.58,47.499,27.161,15.372L1651.607,357.995z"/>
		<path d="M1762.868,347.804l-15.215,13.3c-13.254-10.191-25.361,3.108-33.705,17.445l-9.163,49.917h-23.068l16.524-86.362h22.415
			l-3.436,18.827C1727.527,342.795,1741.434,334.332,1762.868,347.804z"/>
		<path d="M1790.848,298.75l-14.071,32.818h-12.924l9.488-32.818H1790.848z"/>
		<path d="M1859.569,364.386c2.453-5.181,5.236-14.682-4.583-15.545c-3.6-0.69-8.508,0.518-11.452,2.937
			c-5.072,2.244-7.852,7.253-7.199,10.709c0.492,3.8,0.983,4.318,3.108,6.735c2.783,2.591,6.872,5.527,11.782,8.291
			c4.253,2.246,9.16,5.355,13.252,8.291c3.6,3.109,6.216,6.391,7.691,10.71c8.508,35.927-63.974,44.735-68.882,16.581
			c-1.308-8.291,3.6-17.791,13.416-22.282l12.107,10.882c-10.144,3.282-14.724,8.981-12.596,13.646
			c2.125,5.699,13.088,7.427,22.251,3.8c5.236-2.419,9.488-5.873,11.616-11.054c2.455-5.873-3.436-10.882-8.016-14.509
			c-5.727-3.454-8.999-4.836-13.09-8.117c-4.253-2.591-9.16-7.255-11.452-11.4c-6.872-9.846-4.255-22.627,9.98-28.672
			c7.691-3.627,16.198-4.663,24.706-3.801c12.271,0.691,21.598,5.701,25.523,14.682c1.636,4.145,1.636,9.673,0.328,15.027
			L1859.569,364.386z"/>
	</g>
	<g>
		<g>
			<path d="M646.084,402.089l8.948-43.391h25.156h0.925l8.624-25.312h-29.004l4.939-25.312h38.976h0.898l9.581-32.544h-8.494
				c-4.396,0-9.132,0.191-14.144,0.361c-4.693,0.16-9.546,0.34-14.17,0.365c-4.355,0.023-8.581,0.221-12.31,0.388
				c-3.197,0.143-6.217,0.282-8.7,0.282c-7.675,0-13.811,0.234-21.217,0.808c-20.523,2.281-35.423,7.263-46.931,15.71
				c-11.216,8.973-23.61,27.219-18.961,63.184l1.082,8.368l39.706-18.527l-3.447-5.844c-7.253-12.314-6.428-23.2-1.968-27.19
				c4.727-4.23,13.649-5.4,21.372-6.387l-25.736,127.583h1.508h77.511h0.936l8.293-32.544H646.084z"/>
			<path d="M1059.04,326.154h-50.549c-1.528,0-2.964-0.651-4.356-0.691c-2.079-0.058-4.065-0.418-6.101-0.339l-0.417-0.59
				l-0.566-0.049c-9.4,0.471-19.084,4-27.665,10.788l-4.945-2.971c-9.185-5.468-17.89-8.251-25.876-8.251
				c-7.522,0-14.238,2.809-20.439,7.328l1.112-5.225h-38.808l-13.844,68.089c-8.447,12.664-20.576,18.725-30.022,14.318
				c-3.683-1.799-6.464-6.434-7.737-12.56c17.849-1.273,31.976-10.021,39.894-24.626c6.375-12.537,7.288-30.851-5.748-41.329
				c-4.556-3.837-10.687-5.885-17.728-5.885c-12.328,0-29.818,6.696-41.943,25.525c-10.63,16.915-14.627,38.15-11.098,54.859
				c-3.354,3.523-6.874,6.046-9.216,6.827c-0.036-0.781,0.013-1.993,0.333-3.774c2.771-15.372,3.208-17.575,4.504-24.115
				c0.676-3.403,1.579-7.965,3.165-16.16c3.495-18.729-1.072-29.044-5.519-34.399c-4.726-5.691-11.766-8.824-19.822-8.824
				c-6.754,0-13.771,2.627-20.447,6.465l0.991-4.411h-38.86l-21.876,108.479h1.507h37.371h1.022l12.923-68.728
				c3.635-8.47,12.414-16.392,17.137-17.824c0.006,0.716-0.067,1.638-0.357,3.145c-2.448,13.184-4.98,26.744-7.691,40.315
				c-3.131,18.573,1.653,28.871,6.217,34.268c4.807,5.686,11.833,8.799,19.781,8.799c8.345,0,18.475-3.782,27.609-11.699
				c6.343,7.273,15.297,11.295,26.386,11.647c0.851,0.022,1.691,0.03,2.526,0.03c11.71,0,21.437-1.754,29.93-6.802l-1.265,6.848
				h1.507h37.161h1.018l11.5-59.961c8.026-12.784,15.812-19.826,22.523-19.826c2.484,0,4.951,0.775,7.543,2.663l3.874,2.748
				l12.627-10.493c-7.021,10.698-12.092,24.826-13.651,42.753c-1.073,12.824,1.985,23.807,9.092,31.533
				c6.024,6.548,14.668,10.583,25.002,10.583c0.011,0,0.022,0,0.033,0c0,0,0.002,0,0.005,0c7.696,0,15.056-2.445,21.465-6.013
				l-5.149,25.024c-3.132,0.432-7.659-1.645-12.931-5.652l-4.38-3.4l-28.533,29.736l9.821,2.802
				c9.128,2.623,17.607,3.942,25.199,3.942c43.029,0,53.778-39.034,60.471-76.16L1059.04,326.154z M830.173,373.834
				c1.83-6.828,4.357-12.805,7.365-17.39c3.535-5.597,7.296-8.499,9.547-9.435c0.267,3.698-0.671,11.03-4.516,17.275
				C839.518,369.24,835.354,372.445,830.173,373.834z M984.954,379.449c4.621-20.614,16.275-34.978,23.843-34.978
				c2.009,0,3.91,1.296,5.65,3.854l-9.042,44.863c-11.481,15.312-17.377,16.09-18.446,16.09c-0.357,0-0.764,0-1.385-0.771
				C983.559,406.014,981.161,397.086,984.954,379.449z"/>
			<path d="M1114.557,326.154l-14.418,70.957c-4.91,8.067-12.543,13.2-16.102,14.227c-0.026-0.729,0.031-2.019,0.352-3.684
				c2.253-11.262,4.725-23.549,7.445-36.962c2.376-11.725,4.942-23.854,7.717-37.646l1.479-6.893h-39.842l-13.068,65.237
				c-3.906,18.933,0.593,29.126,5.052,34.599c4.775,5.862,12.001,8.938,20.343,8.938c6.472-0.001,13.295-1.946,19.88-5.501
				l-4.978,25.534c-0.01,0.051-0.019,1.367-0.029,1.367c-0.065,0-0.147,0-0.246,0c-3.433,0-9.715-4.619-12.36-6.839l-4.351-4.288
				l-29.597,29.595l10.081,2.675c9.185,2.58,17.702,3.81,25.315,3.81c43.022,0,54.093-39.488,61.088-77.018l15.888-78.109H1114.557z
				"/>
		</g>
		<g>
			<path style="fill:#FFC600;" d="M680.925,351.465l5.696-14.464h-28.31l6.811-39.775h40.296l6.344-21.696h-1.69
				c-8.562,0-18.791,1.295-28.233,1.347c-8.09,0.045-15.603,0.706-20.994,0.706c-7.517,0-13.483,0.537-20.634,1.098
				c-19.59,2.218-33.658,7.1-44.314,15.064c-14.841,12.099-20.597,32.252-17.109,59.749l0.214,1.729l28.606-13.584l-0.669-1.147
				c-7.658-13.248-8.08-27.541-1.003-33.992c6.715-6.123,19.217-9.709,30.773-10.83l-25.829,128.115h70.057l5.477-18.08h-42.831
				l10.992-54.239H680.925z"/>
			<path style="fill:#FFC600;" d="M964.889,333.818c-8.373-5.08-16.216-7.657-23.315-7.657c-10.8,0-20.124,7.033-28.373,18.811
				l3.118-15.202h-28.744l-13.051,64.556c-6.228,9.976-16.704,19.541-28.376,19.541c-2.931,0-5.808-0.984-8.533-2.283
				c-7.581-3.773-10.699-14.094-11.143-22.19c18.51,0.251,33.198-7.786,41.004-22.464c5.484-10.989,6.403-26.938-4.514-35.881
				c-3.65-3.132-8.675-4.809-14.532-4.809c-11.007,0-26.689,6.193-37.699,23.612c-10.585,17.166-14.182,38.701-9.807,54.709
				c-5.231,6.208-11.641,10.652-15.758,10.652c-1.146,0-2-0.355-2.613-1.084c-0.887-1.057-1.742-3.47-0.778-8.964
				c2.773-15.666,3.212-17.923,4.515-24.622c0.672-3.455,1.573-8.081,3.145-16.364c2.503-13.665,0.917-24.378-4.586-30.981
				c-3.804-4.565-9.291-6.976-15.867-6.976c-9.211,0-19.543,6.147-27.763,14.184l2.339-10.635h-28.754l-19.835,94.015h29.727
				l12.19-63.846c4.539-11.504,16.672-20.87,23.051-20.87c1.176,0,2.042,0.79,2.649,1.523c0.841,1.013,1.64,3.52,0.671,8.678
				c-2.448,13.431-4.979,27.428-7.665,41.12c-2.243,13.56-0.429,24.319,5.246,31.011c3.895,4.591,9.375,7.046,15.848,7.046
				c8.572,0,19.265-4.567,28.323-14.257c5.416,8.916,14.234,13.868,25.703,14.238c0.806,0.022,1.601,0.036,2.393,0.036
				c15.521,0,27.318-6.438,37.464-17.213l-2.829,12.534h29.532l10.876-55.458c9.105-15.039,18.486-22.117,27.136-22.117
				c3.502,0,7.007,1.718,10.417,4.249l0.784,0.799l19.872-16.658L964.889,333.818z M827.167,376.879
				c1.967-10.2,5.219-19.027,9.415-25.546c5.26-8.485,11.33-12.283,15.013-12.283c0.942,0,1.731,0.237,2.314,0.683
				c1.505,1.226,2.319,9.367-0.916,18.45c-2.57,7.215-9.34,19.3-25.864,19.393C827.162,377.293,827.183,377.035,827.167,376.879z"/>
			<path style="fill:#FFC600;" d="M1011.37,329.77c-3.882,0-7.194-1.596-10.703-1.408l-0.472-0.862
				c-22.046,1.124-45.942,21.14-49.628,64.322c-0.96,11.69,1.796,20.706,7.97,27.407c5.274,5.726,12.797,8.171,21.185,8.171
				c0,0,0.002,0,0.005,0c10.401,0,20.928-4.383,28.922-12.726l-7.864,38.929l-0.641,2.731c-5.103,2.76-11.828,0.956-20.01-5.379
				l-0.884-0.655l-19.768,21.035l1.929,0.573c8.674,2.538,16.68,3.829,23.8,3.829c39.083,0,49.157-36.669,55.525-72.677
				l15.047-73.29H1011.37z M1022.523,344.828l-9.633,48.687c-8.999,12.445-17.167,19.294-23.012,19.294
				c-2.031,0-3.761-0.864-5.142-2.567c-4.383-5.404-5.002-18.087-1.662-33.917c4.795-21.785,17.625-39.508,28.602-39.508
				C1015.96,336.816,1019.608,339.511,1022.523,344.828z"/>
			<path style="fill:#FFC600;" d="M1121.26,329.77l-13.758,68.224c-5.877,10.359-16.312,17.436-21.774,17.436
				c-1.219,0-2.115-0.69-2.744-1.448c-0.863-1.041-1.682-3.551-0.684-8.829c2.286-11.647,4.797-24.351,7.565-38.263
				c2.335-11.734,4.85-23.139,7.568-36.893l0.292-0.226h-29.72l-12.259,61.581c-2.788,13.777-1.503,23.982,4.014,30.726
				c3.867,4.73,12.583,6.61,16.199,6.61v-0.013c10.848-0.001,19.09-4.372,27.302-11.836l-7.369,37.068
				c-0.564,2.862-2.144,4.194-5.059,4.194c-5.293,0-12.683-4.462-15.473-6.849l-0.87-0.753l-20.434,21.048l1.983,0.566
				c8.734,2.501,16.79,3.769,23.941,3.769c39.179,0,49.22-35.67,56.142-73.505l14.662-72.606H1121.26z"/>
		</g>
	</g>
</g>
</svg>
