<?xml version="1.0" encoding="UTF-8"?>
<!DOCTYPE svg PUBLIC "-//W3C//DTD SVG 1.1//EN" "http://www.w3.org/Graphics/SVG/1.1/DTD/svg11.dtd">
<!-- Creator: CorelDRAW 2020 (64-Bit Versión de evaluación) -->
<svg xmlns="http://www.w3.org/2000/svg" xml:space="preserve" width="252.334mm" height="57.1393mm" version="1.1" style="shape-rendering:geometricPrecision; text-rendering:geometricPrecision; image-rendering:optimizeQuality; fill-rule:evenodd; clip-rule:evenodd"
viewBox="0 0 25890.43 5862.7"
 xmlns:xlink="http://www.w3.org/1999/xlink"
 xmlns:xodm="http://www.corel.com/coreldraw/odm/2003">
 <defs>
  <style type="text/css">
   <![CDATA[
    .fil0 {fill:#848688}
    .fil3 {fill:#606062}
    .fil1 {fill:#373435;fill-rule:nonzero}
    .fil2 {fill:#990000;fill-rule:nonzero}
   ]]>
  </style>
 </defs>
 <g id="Capa_x0020_1">
  <metadata id="CorelCorpID_0Corel-Layer"/>
  <path class="fil0" d="M12698.58 4335.92l-3230.35 -3325.83 -9468.22 15.91c354.03,1142.71 1003.36,2013.82 2418.77,2180.07 259.08,917.05 865.42,1877.74 1877.74,1909.57l4025.98 -31.83 -238.7 -747.9 -3389.47 0c-628.21,0 -957.85,-548.03 -1034.35,-1193.48l3023.47 0 -206.87 -604.7 -3596.33 0c-632.2,0 -927.24,-381.15 -1034.35,-779.73l6953.97 0 2721.13 2577.91 1177.57 0z"/>
  <path class="fil0" d="M14897 2548.56l1525.21 -1570.31 9468.21 15.92c-354.03,1142.71 -1003.35,2013.82 -2418.77,2180.07 -259.08,917.05 -865.41,1877.74 -1877.74,1909.57l-3039.28 -24.02 238.7 -747.9 2402.77 -7.81c628.21,0 957.85,-548.03 1034.35,-1193.49l-3023.47 0 206.87 -604.69 3596.33 0c632.2,0 927.25,-381.15 1034.35,-779.74l-6953.97 0 -2319.41 2197.33c84.87,-265.19 150.65,-541.81 178.61,-819.8 14.05,-139.65 13.96,-282.66 -13.86,-420.71 -9.35,-46.4 -22.3,-91.28 -38.9,-134.43z"/>
  <path class="fil1" d="M5106.72 5304.8l-51.69 146.16 -233.47 0 -145.28 411.74 -178.24 0 145.26 -411.74 -233.47 0 51.67 -146.16 645.23 0zm854.2 187.16l-4.45 16.04c-12.49,27.34 -27.92,53.03 -46.36,77.09 -18.42,24.07 -44.26,44.42 -77.53,61.06 16.64,7.13 28.81,17.97 36.55,32.52 7.72,14.57 10.1,30.74 7.11,48.57 -1.19,7.13 -2.95,14.26 -5.34,21.39l-40.11 114.07 -178.24 0 40.12 -115.86c1.18,-7.72 -0.61,-14.55 -5.37,-20.49 -4.73,-5.94 -11.58,-9.51 -20.49,-10.7l-283.4 0 -29.41 -106.93 -90.01 253.99 -178.24 0 196.96 -557.9 551.65 0c29.71,0 54.22,2.99 73.54,8.93 19.3,5.94 34.45,14.41 45.45,25.38 10.98,11 17.97,24.21 20.93,39.67 2.98,15.45 3.28,32.68 0.9,51.69 -1.19,9.49 -2.82,19.31 -4.91,29.4 -2.07,10.12 -5.2,20.82 -9.35,32.09zm-597.99 90.91l339.54 0c13.07,-1.8 24.51,-6.56 34.33,-14.27 9.79,-7.72 19.16,-16.63 28.06,-26.73 10.1,-15.45 16.04,-30.61 17.83,-45.45 0,-2.38 0.13,-4.75 0.44,-7.13 0.3,-2.38 0.44,-4.75 0.44,-7.13 -1.19,-10.7 -4.89,-18.27 -11.14,-22.73 -6.25,-4.45 -15.29,-7.27 -27.18,-8.46l-335.98 0 -46.35 131.91zm1003.9 83.77l-180.01 196.07 -193.39 0 480.35 -532.05c5.95,-6.53 14.41,-12.47 25.4,-17.83 10.99,-5.34 20.63,-8.01 28.95,-8.01l179.15 0c8.32,0 16.17,2.68 23.61,8.01 7.44,5.37 11.73,11.31 12.92,17.83l104.28 532.05 -193.39 0 -17.83 -88.22 -239.72 0 -30.32 -107.85zm199.64 -215.67l-9.8 6.25 -167.55 184.46 220.14 0 -37.43 -184.46 -5.36 -6.25zm913.92 -98.92l164.86 332.43 133.69 -379.66 178.23 0 -196.95 557.9 -207.65 0c-25.55,0 -46.94,-15.76 -64.17,-47.24l-164.88 -332.43 -134.57 379.66 -178.24 0 196.96 -557.9 207.65 0c11.88,0 23.48,4.17 34.75,12.49 11.31,8.3 21.39,19.91 30.32,34.75zm1227.61 325.29c2.95,-7.14 5.34,-14.41 7.11,-21.84 1.8,-7.43 3.28,-14.41 4.47,-20.93 2.38,-16.64 1.78,-32.09 -1.8,-46.36 -3.56,-14.24 -11.14,-26.74 -22.73,-37.43 -11.58,-10.68 -27.48,-19 -47.68,-24.94 -20.19,-5.94 -45.45,-8.93 -75.75,-8.93l-291.43 0c-9.51,-1.19 -17.23,-2.97 -23.17,-5.34 -5.94,-2.38 -9.79,-8.63 -11.58,-18.71l6.25 -16.04c8.32,-10.7 17.36,-17.39 27.18,-20.05 9.79,-2.68 20.64,-4.62 32.54,-5.81l476.79 0 51.67 -146.16 -513.32 0c-36.24,0 -68.33,4.45 -96.25,13.38 -27.93,8.91 -52.29,21.37 -73.07,37.43 -20.79,16.04 -38.32,35.06 -52.58,57.04 -14.26,21.98 -25.85,46.03 -34.75,72.18 -6.55,16.64 -10.7,32.68 -12.49,48.13 -2.38,16.62 -2.08,32.07 0.88,46.34 2.99,14.26 9.51,26.74 19.62,37.43 10.1,10.7 24.2,19.02 42.33,24.94 18.11,5.94 41.13,8.93 69.06,8.93l306.57 0c9.51,1.19 17.25,2.97 23.17,5.34 5.94,2.38 9.81,8.63 11.6,18.71l-6.25 16.04c-8.32,10.7 -17.38,17.39 -27.18,20.07 -9.81,2.66 -20.64,4.6 -32.54,5.79l-476.79 0 -51.69 146.16 513.34 0c36.24,0 68.62,-5.06 97.15,-15.15 28.5,-10.09 53.17,-23.61 73.96,-40.55 20.81,-16.93 38.34,-36.09 52.58,-57.48 14.26,-21.39 25.26,-43.68 32.98,-66.85l1.8 -5.34z"/>
  <path class="fil2" d="M13211.9 3170.22l-1645.57 0 -928.37 -955.8 3161.01 0c202.09,0 367.95,20.41 497.7,61.26 129.86,40.69 229.19,99.05 298.08,174.81 69.02,75.77 114.27,167.06 135.74,273.91 21.6,106.84 25.24,226.33 10.78,358.35 -24.98,260.33 -91.67,549.77 -199.91,868.45l-57.48 174.84c-79.68,252.56 -164.09,484.68 -253.12,696.4 -89.01,211.72 -201.54,394.31 -337.58,547.8 -135.89,153.48 -303.22,273.9 -501.99,361.37 -198.63,87.36 -445.57,131.1 -740.93,131.1l-3607.45 0 779.97 -2478.55 899.01 851.71 -211.86 671.02 2156.28 0c62.18,0 122.96,-12.65 182.2,-37.81 59.23,-25.28 113.28,-59.29 162.25,-101.97 48.81,-42.83 90.77,-89.47 125.73,-139.91 34.98,-50.47 61.16,-103.03 78.45,-157.31l264.3 -862.53c7.04,-19.5 12.21,-38.89 15.3,-58.36 3.08,-19.38 6.28,-38.87 9.37,-58.25 12.15,-89.31 -5.24,-165.08 -52.29,-227.26 -47.03,-62.19 -127,-93.28 -239.64,-93.28z"/>
  <path class="fil2" d="M15081.59 5242.85l-544.8 619.83 -611.36 0 1452.6 -1681.99c17.97,-20.67 44,-39.45 78.07,-56.35 34.08,-16.9 64.28,-25.36 90.58,-25.36l566.29 0c26.32,0 51.52,8.46 75.66,25.36 24.15,16.9 38.52,35.68 43.07,56.35l395.61 1681.99 -611.38 0 -67.27 -278.93 -757.89 0 -109.17 -340.9zm604.37 -681.82l-30.24 19.73 -506.78 583.2 695.9 0 -141.21 -583.2 -17.67 -19.73z"/>
  <path class="fil2" d="M17584.41 5400.64l408.18 -1301.64 -563.49 0 -458.1 1465.06c-3.4,9.39 -5.9,17.38 -7.52,23.95 -1.61,6.57 -2.29,13.63 -1.99,21.14 -4.32,33.81 -1.65,65.74 7.99,95.8 9.61,30.03 23.35,56.81 41.19,80.28 17.82,23.5 38.78,42.29 62.78,56.35 24.01,14.05 49.19,21.14 75.48,21.14l3150.48 0 145.28 -462.07 -2860.26 0z"/>
  <path class="fil3" d="M10895.09 2074.97c625.47,-1808.91 3128.56,-2091.23 3967.56,0l112.01 0 -42.01 -100.55 424.77 -392.07 -182.04 -359.41 -631.58 115.55c-94.03,-125.87 -200.86,-239.14 -318.93,-341.26l185 -493.12 -448.1 -256.72 -360.43 374.24c-112.76,-43.96 -235.09,-79.18 -369.47,-103.31l-128.95 -518.31 -541.46 4.66 -100.34 520.64c-149.94,29.2 -293.73,76 -432.62,136.84l-507.96 -396.08 -406.07 289.38 178.2 652.32c-49.78,53.89 -99.48,118.8 -149.1,193.28l-584.55 -192.12 -238.05 401.42 429.42 464.62 144.69 0z"/>
 </g>
</svg>
