<?xml version="1.0" encoding="UTF-8" standalone="no"?>
<svg
   xmlns:dc="http://purl.org/dc/elements/1.1/"
   xmlns:cc="http://creativecommons.org/ns#"
   xmlns:rdf="http://www.w3.org/1999/02/22-rdf-syntax-ns#"
   xmlns:svg="http://www.w3.org/2000/svg"
   xmlns="http://www.w3.org/2000/svg"
   xmlns:sodipodi="http://sodipodi.sourceforge.net/DTD/sodipodi-0.dtd"
   xmlns:inkscape="http://www.inkscape.org/namespaces/inkscape"
   inkscape:version="1.0 (4035a4fb49, 2020-05-01)"
   xml:space="preserve"
   style="enable-background:new 0 0 1000.9 850.4;"
   viewBox="0 0 1000.9 850.4"
   y="0px"
   x="0px"
   sodipodi:docname="Editable.svg"
   id="Layer_1"
   version="1.1"><metadata
   id="metadata62"><rdf:RDF><cc:Work
       rdf:about=""><dc:format>image/svg+xml</dc:format><dc:type
         rdf:resource="http://purl.org/dc/dcmitype/StillImage" /></cc:Work></rdf:RDF></metadata><defs
   id="defs60" />
<style
   id="style2"
   type="text/css">
	.st0{fill:#5A2CA0;}
	.st1{fill:#F4F4F4;}
	.st2{fill-rule:evenodd;clip-rule:evenodd;fill:#00AA44;}
	.st3{fill-rule:evenodd;clip-rule:evenodd;fill:#FF80E5;}
	.st4{fill:#FF2AD4;}
	.st5{fill:#FF55DD;}
	.st6{fill:#FF00CC;}
	.st7{fill:#FF80E5;}
	.st8{fill:#FFAAEE;}
	.st9{enable-background:new    ;}
	.st10{fill-rule:evenodd;clip-rule:evenodd;fill:#00D455;}
</style>
<sodipodi:namedview
   showgrid="false"
   pagecolor="#ffffff"
   objecttolerance="10"
   inkscape:zoom="1.0228768"
   inkscape:window-y="-8"
   inkscape:window-x="-8"
   inkscape:window-width="1920"
   inkscape:window-maximized="1"
   inkscape:window-height="1017"
   inkscape:pageshadow="2"
   inkscape:pageopacity="0"
   inkscape:document-rotation="0"
   inkscape:cy="473.30178"
   inkscape:cx="509.54287"
   inkscape:current-layer="Layer_1"
   id="namedview50"
   guidetolerance="10"
   gridtolerance="10"
   borderopacity="1"
   bordercolor="#666666">
	</sodipodi:namedview>
<path
   inkscape:export-ydpi="300"
   inkscape:export-xdpi="300"
   inkscape:export-filename="C:\Users\kike2\Desktop\RM.png"
   d="M180,92"
   class="st0"
   id="path55" />
<path
   inkscape:export-ydpi="300"
   inkscape:export-xdpi="300"
   inkscape:export-filename="C:\Users\kike2\Desktop\RM.png"
   d="M180,92"
   class="st0"
   id="path59" />
<path
   inkscape:export-ydpi="300"
   inkscape:export-xdpi="300"
   inkscape:export-filename="C:\Users\kike2\Desktop\RM.png"
   d="M180,92"
   class="st0"
   id="path79" />
<path
   inkscape:export-ydpi="300"
   inkscape:export-xdpi="300"
   inkscape:export-filename="C:\Users\kike2\Desktop\RM.png"
   d="M180,92"
   class="st0"
   id="path107" />
<path
   inkscape:export-ydpi="300"
   inkscape:export-xdpi="300"
   inkscape:export-filename="C:\Users\kike2\Desktop\RM.png"
   d="M180,92"
   class="st0"
   id="path109" />
<path
   inkscape:export-ydpi="300"
   inkscape:export-xdpi="300"
   inkscape:export-filename="C:\Users\kike2\Desktop\RM.png"
   d="M180,92"
   class="st0"
   id="path123" />
<path
   inkscape:export-ydpi="300"
   inkscape:export-xdpi="300"
   inkscape:export-filename="C:\Users\kike2\Desktop\RM.png"
   d="M180,92"
   class="st0"
   id="path127" />
<rect
   y="283.42981"
   id="rect12"
   height="850.40002"
   width="994.59998"
   class="st1"
   x="-1098.7197" />
<path
   inkscape:export-ydpi="300"
   inkscape:export-xdpi="300"
   inkscape:export-filename="C:\Users\kike2\Desktop\RM.png"
   d="M529.6,257.7h-3.9l42.6,68.3c16.4-3.2,32.3-12.4,45.3-29.9c19.6-26.4,11.1-88.8-13.1-106  c-16.3-11.5-41.7-14.2-78.1-14.2C581.1,176,573.4,257.7,529.6,257.7L529.6,257.7z"
   class="st2"
   id="path13" />
<path
   inkscape:export-ydpi="300"
   inkscape:export-xdpi="300"
   inkscape:export-filename="C:\Users\kike2\Desktop\RM.png"
   d="M488.6,334.4h-47.8v-76.7C465,275.5,484.7,297.4,488.6,334.4L488.6,334.4z"
   class="st3"
   id="path15" />
<rect
   inkscape:export-ydpi="300"
   inkscape:export-xdpi="300"
   inkscape:export-filename="C:\Users\kike2\Desktop\RM.png"
   height="77.3"
   width="40.3"
   class="st4"
   y="228.1"
   x="386.8"
   id="rect17" />
<rect
   inkscape:export-ydpi="300"
   inkscape:export-xdpi="300"
   inkscape:export-filename="C:\Users\kike2\Desktop\RM.png"
   height="28.7"
   width="28.6"
   class="st5"
   y="309"
   x="359.9"
   id="rect19" />
<rect
   inkscape:export-ydpi="300"
   inkscape:export-xdpi="300"
   inkscape:export-filename="C:\Users\kike2\Desktop\RM.png"
   height="47.4"
   width="25.1"
   class="st5"
   y="332.1"
   x="405.1"
   id="rect21" />
<rect
   inkscape:export-ydpi="300"
   inkscape:export-xdpi="300"
   inkscape:export-filename="C:\Users\kike2\Desktop\RM.png"
   height="28.4"
   width="18.3"
   class="st5"
   y="388.3"
   x="434.3"
   id="rect23" />
<rect
   inkscape:export-ydpi="300"
   inkscape:export-xdpi="300"
   inkscape:export-filename="C:\Users\kike2\Desktop\RM.png"
   height="34.3"
   width="30.5"
   class="st6"
   y="384.5"
   x="463.5"
   id="rect25" />
<rect
   inkscape:export-ydpi="300"
   inkscape:export-xdpi="300"
   inkscape:export-filename="C:\Users\kike2\Desktop\RM.png"
   height="39.1"
   width="27.3"
   class="st6"
   y="410.8"
   x="500.6"
   id="rect27" />
<rect
   inkscape:export-ydpi="300"
   inkscape:export-xdpi="300"
   inkscape:export-filename="C:\Users\kike2\Desktop\RM.png"
   height="26.4"
   width="18.9"
   class="st6"
   y="466.2"
   x="524.4"
   id="rect29" />
<rect
   inkscape:export-ydpi="300"
   inkscape:export-xdpi="300"
   inkscape:export-filename="C:\Users\kike2\Desktop\RM.png"
   height="25.8"
   width="16.3"
   class="st4"
   y="449.9"
   x="477"
   id="rect31" />
<rect
   inkscape:export-ydpi="300"
   inkscape:export-xdpi="300"
   inkscape:export-filename="C:\Users\kike2\Desktop\RM.png"
   height="23.4"
   width="23.5"
   class="st7"
   y="441.3"
   x="428.6"
   id="rect33" />
<rect
   inkscape:export-ydpi="300"
   inkscape:export-xdpi="300"
   inkscape:export-filename="C:\Users\kike2\Desktop\RM.png"
   height="19.6"
   width="12"
   class="st8"
   y="444.5"
   x="402.9"
   id="rect35" />
<rect
   inkscape:export-ydpi="300"
   inkscape:export-xdpi="300"
   inkscape:export-filename="C:\Users\kike2\Desktop\RM.png"
   height="19.8"
   width="11.6"
   class="st8"
   y="464.1"
   x="391.3"
   id="rect37" />
<rect
   inkscape:export-ydpi="300"
   inkscape:export-xdpi="300"
   inkscape:export-filename="C:\Users\kike2\Desktop\RM.png"
   height="29.6"
   width="18.5"
   class="st7"
   y="396.9"
   x="382"
   id="rect39" />
<rect
   inkscape:export-ydpi="300"
   inkscape:export-xdpi="300"
   inkscape:export-filename="C:\Users\kike2\Desktop\RM.png"
   height="20.1"
   width="13.7"
   class="st8"
   y="440.4"
   x="366.7"
   id="rect41" />
<polygon
   inkscape:export-ydpi="300"
   inkscape:export-xdpi="300"
   inkscape:export-filename="C:\Users\kike2\Desktop\RM.png"
   points="440.8,257.8 587.2,492.5 663.7,492.5 517.2,257.8 "
   class="st8"
   id="polygon43" />
<rect
   inkscape:export-ydpi="300"
   inkscape:export-xdpi="300"
   inkscape:export-filename="C:\Users\kike2\Desktop\RM.png"
   height="26.4"
   width="18.3"
   class="st7"
   y="371.1"
   x="350.1"
   id="rect45" />
<g
   transform="translate(-1241.5608,69.12922)"
   id="g41"
   class="st9">
	<path
   id="path31"
   d="M 225.8,622.2 V 565 h 77.5 c 2.3,0 4.3,-0.9 6.1,-2.7 1.7,-1.9 2.6,-4.2 2.6,-6.9 v -9.5 h -68.8 c -4.8,0 -8.9,-1.8 -12.2,-5.5 -3.3,-3.8 -5,-8.3 -5,-13.6 H 329.3 V 565 c 0,5.4 -1.7,9.9 -5.1,13.6 -3.4,3.7 -7.4,5.5 -12.1,5.5 h -17.2 l 34.4,38.2 H 303.5 L 268.9,584 h -25.8 v 38.2 z"
   class="st0" />
	<path
   id="path33"
   d="m 363.5,545.9 c -4.8,0 -8.9,-1.8 -12.2,-5.5 -3.3,-3.8 -5,-8.3 -5,-13.6 h 103.3 c 0,5.4 -1.7,9.9 -5.1,13.6 -3.4,3.7 -7.4,5.5 -12.1,5.5 z m -17.2,76.3 V 565 h 17.2 v 38.2 h 68.8 V 565 h 17.2 v 57.2 z"
   class="st0" />
	<path
   id="path35"
   d="M 466.8,622.2 V 565 h 77.5 c 2.3,0 4.3,-0.9 6.1,-2.7 1.7,-1.9 2.6,-4.2 2.6,-6.9 v -9.5 H 466.9 V 526.8 H 570.2 V 565 c 0,2.7 -0.9,5 -2.6,6.9 -1.7,1.8 -3.7,2.7 -6.1,2.7 2.3,0 4.3,0.9 6.1,2.8 1.7,1.9 2.6,4.1 2.6,6.7 v 38.2 H 466.8 Z m 86.1,-19.1 v -9.5 c 0,-2.6 -0.9,-4.8 -2.6,-6.7 -1.7,-1.9 -3.7,-2.8 -6.1,-2.8 H 484 v 19.1 h 68.9 z"
   class="st0" />
	<path
   id="path37"
   d="m 587.3,622.2 v -95.4 h 17.2 v 76.3 h 86.1 c 0,5.4 -1.7,9.9 -5.1,13.6 -3.4,3.7 -7.4,5.5 -12.1,5.5 z"
   class="st0" />
	<path
   id="path39"
   d="m 725,545.9 c -4.8,0 -8.9,-1.8 -12.2,-5.5 -3.3,-3.8 -5,-8.3 -5,-13.6 H 811 c 0,5.4 -1.7,9.9 -5.1,13.6 -3.4,3.7 -7.4,5.5 -12.1,5.5 z m 0,38.1 c -4.8,0 -8.9,-1.8 -12.2,-5.5 -3.3,-3.8 -5,-8.3 -5,-13.6 H 811 c 0,5.4 -1.7,9.9 -5.1,13.6 -3.4,3.7 -7.4,5.5 -12.1,5.5 z m 0,38.2 c -4.8,0 -8.9,-1.8 -12.2,-5.5 -3.3,-3.8 -5,-8.3 -5,-13.6 H 811 c 0,5.4 -1.7,9.9 -5.1,13.6 -3.4,3.7 -7.4,5.5 -12.1,5.5 z"
   class="st0" />
</g>
<g
   inkscape:export-ydpi="300"
   inkscape:export-xdpi="300"
   inkscape:export-filename="C:\Users\kike2\Desktop\RM.png"
   transform="matrix(1.316652,0,0,1.199914,-161.86227,-248.86677)"
   id="g45"
   class="st9">
	<path
   id="path43"
   d="m 541.1,726.5 -31.8,-85.9 h 15.9 L 549,705 572.9,640.6 h 15.9 L 557,726.5 Z"
   class="st0" />
</g>
<g
   inkscape:export-ydpi="300"
   inkscape:export-xdpi="300"
   inkscape:export-filename="C:\Users\kike2\Desktop\RM.png"
   transform="matrix(1.316652,0,0,1.199914,-161.86227,-248.86677)"
   id="g55"
   class="st9">
	<path
   id="path47"
   d="M 273.7,726.3 V 657.5 L 258,640.3 h 23.5 l 39.2,43 39.2,-43 h 23.5 l -15.7,17.2 v 68.8 H 352 v -51.6 l -23.5,25.8 v 25.8 H 313 v -25.8 l -23.5,-25.8 v 51.6 z"
   class="st0" />
	<path
   id="path49"
   d="m 414.9,657.5 c -4.4,0 -8.1,-1.7 -11.2,-5 -3,-3.4 -4.5,-7.5 -4.5,-12.2 h 94.1 c 0,4.8 -1.6,8.9 -4.7,12.2 -3.1,3.3 -6.8,5 -11,5 z m -15.7,68.8 v -51.6 h 15.7 v 34.4 h 62.8 v -34.4 h 15.7 v 51.6 z"
   class="st0" />
	<path
   id="path51"
   d="m 603.2,726.3 v -85.9 h 15.7 v 85.9 z"
   class="st0" />
	<path
   id="path53"
   d="m 634.6,726.3 v -85.9 h 15.7 v 68.8 h 78.4 c 0,4.8 -1.6,8.9 -4.7,12.2 -3.1,3.3 -6.8,5 -11,5 h -78.4 z"
   class="st0" />
</g>
<path
   inkscape:export-ydpi="300"
   inkscape:export-xdpi="300"
   inkscape:export-filename="C:\Users\kike2\Desktop\RM.png"
   style="stroke-width:1.25693"
   d="m 833.52665,619.75094 c -0.65832,-0.35997 -0.39499,0 -3.94995,-5.27962 -3.15996,-4.55967 -8.16325,-12.4791 -11.05988,-17.27876 -10.53322,-17.51875 -16.98481,-32.15769 -18.03813,-40.91707 -0.26333,-1.91986 -0.13167,-6.59953 0.26333,-8.63938 1.18499,-7.67945 4.60828,-14.51896 9.74323,-19.91857 5.13494,-5.51961 11.45486,-8.87936 18.95979,-10.19927 2.36997,-0.35998 8.16324,-0.35998 10.40155,0 7.50491,1.31991 13.69317,4.67966 18.95978,10.19927 5.13494,5.39961 8.42658,12.23912 9.74323,19.91857 0.395,2.15985 0.395,6.71952 0.26333,8.63938 -1.05332,8.75938 -7.37325,23.03835 -18.03813,40.91707 -3.94996,6.71952 -13.03486,20.51852 -14.35151,21.95842 -0.92165,0.95993 -1.97498,1.19992 -2.89664,0.59996 z m 4.47662,-48.8365 c 4.73995,-1.31991 8.55824,-5.15963 10.00656,-10.31926 0.65832,-2.15984 0.65832,-5.99957 0,-8.27941 -0.78999,-2.51981 -1.71165,-4.1997 -3.68663,-6.23954 -1.44831,-1.55989 -1.97498,-1.91987 -3.55496,-2.75981 -4.21329,-2.15985 -8.55824,-2.15985 -12.77153,0.11999 -1.31665,0.71995 -1.97497,1.19991 -3.42329,2.7598 -1.44832,1.55989 -1.97498,2.15985 -2.63331,3.59975 -1.05331,2.15984 -1.31665,3.71973 -1.44831,6.11956 -0.26333,4.19969 1.18499,8.03942 4.08162,11.03921 2.10664,2.27983 5.00328,3.83972 7.89992,4.31968 1.31665,0.23999 4.08161,0.12 5.52993,-0.35997 z m -4.87161,-6.35954 c -3.8183,-0.83994 -6.58326,-4.55967 -6.31993,-8.63938 0.26333,-3.35976 2.10664,-5.99957 5.26661,-7.19949 1.71165,-0.59996 4.08162,-0.47996 5.79327,0.35998 6.84659,3.47975 5.52994,14.03899 -1.97498,15.59888 -1.18499,0.11999 -1.71165,0.11999 -2.76497,-0.11999 z"
   class="st0"
   id="path208" />
<path
   inkscape:export-ydpi="300"
   inkscape:export-xdpi="300"
   inkscape:export-filename="C:\Users\kike2\Desktop\RM.png"
   d="M522.4,176c36.4,0,61.9,11,78.1,22.5c28.8,20.5,22.3,71.1,7.2,104.8  C670.5,231.7,637.8,92,547.3,92H406.4l-44.7,84L522.4,176z"
   class="st10"
   id="path11" />
</svg>
